# Alias OBJ Model File
# Exported from SketchUp, (c) 2000-2012 Trimble Navigation Limited
# File units = meters

mtllib dot_F.mtl

g Mesh1 Model

usemtl Color_009
v -16 -8 -5.77529e-015
vt -9.99201e-016 -0.5
vn -9.88795e-033 0.973249 -0.229753
v 16 -8 -16
vt -1 -1
vn 0 1 -0
v -16 -8 -16
vt -1.38778e-015 -1
f 1/1/1 2/2/2 3/3/2

v 16 -8 -5.77529e-015
vt -1 -0.5
f 2/2/2 1/1/1 4/4/1

usemtl BackColor
vt -629.921 629.921
vn -0 -1 0
vt 629.921 629.921
vt -629.921 2.27374e-013
vn 9.88795e-033 -0.973249 0.229753
f 3/5/3 2/6/3 1/7/4

vt 629.921 2.27374e-013
f 4/8/4 1/7/4 2/6/3

usemtl Color_009
v -16 -1.44382e-015 16
vt -1.22125e-015 -6.10623e-016
vn -1.92469e-032 0.894427 -0.447214
f 5/9/5 4/4/1 1/1/1

v 16 -1.44382e-015 16
vt -1 4.44089e-016
f 4/4/1 5/9/5 6/10/5

usemtl BackColor
vt 629.921 -140.855
vt -629.921 -140.855
vt 629.921 563.419
vn 1.92469e-032 -0.894427 0.447214
f 1/11/4 4/12/4 5/13/6

vt -629.921 563.419
f 6/14/6 5/13/6 4/12/4

g Mesh2 Model

l 3 1

l 3 2

l 2 4

l 4 6

l 6 5

l 1 5

