# Alias OBJ Model File
# Exported from SketchUp, (c) 2000-2012 Trimble Navigation Limited
# File units = meters

mtllib dot_k.mtl

g Mesh1 Model

usemtl Stone_Coursed_Rough
v -2.88765e-015 -8 16
vt -1.5 -1
vn 0 1 -0
v -16 -8 5.77529e-015
vt -1 -1.5
v -16 -8 16
vt -1 -1
f 1/1/1 2/2/1 3/3/1

v -11.8589 -8 0.545187
vt -1.12941 -1.48296
f 2/2/1 1/1/1 4/4/1

usemtl BackColor
vt -629.921 -629.921
vn -0 -1 0
vt -629.921 -2.27374e-013
vt -1.13687e-013 -629.921
f 3/5/2 2/6/2 1/7/2

vt -466.886 -21.464
f 4/8/2 1/7/2 2/6/2

usemtl Stone_Coursed_Rough
v -8 -8 2.14359
vt -1.25 -1.43301
f 4/4/1 1/1/1 5/9/1

usemtl BackColor
vt -314.961 -84.3934
f 5/10/2 1/7/2 4/8/2

usemtl Stone_Coursed_Rough
v -4.68629 -8 4.68629
vt -1.35355 -1.35355
f 5/9/1 1/1/1 6/11/1

usemtl BackColor
vt -184.5 -184.5
f 6/12/2 1/7/2 5/10/2

usemtl Stone_Coursed_Rough
v -2.14359 -8 8
vt -1.43301 -1.25
f 6/11/1 1/1/1 7/13/1

usemtl BackColor
vt -84.3934 -314.961
f 7/14/2 1/7/2 6/12/2

usemtl Stone_Coursed_Rough
v -0.545187 -8 11.8589
vt -1.48296 -1.12941
f 7/13/1 1/1/1 8/15/1

usemtl BackColor
vt -21.464 -466.886
f 8/16/2 1/7/2 7/14/2

usemtl Stone_Coursed_Rough
v 14.9096 -5.76376e-016 7.71779
vt -1.96593 -1.25882
vn -0.44644 0.892881 0.058775
f 9/17/3 8/15/3 1/1/3

vn -0.416016 0.892881 0.17232
v 11.7128 7.65679e-015 5.13005e-015
vt -1.86603 -1.5
f 9/17/4 10/18/4 8/15/4

usemtl BackColor
vt 423.132 -319.061
vn 0.416016 -0.892881 -0.17232
vt 176.468 380.396
vt 505.353 380.396
f 8/19/5 10/20/5 9/21/5

usemtl Stone_Coursed_Rough
f 10/18/4 7/13/4 8/15/4

vn -0.357241 0.892881 0.274121
v 6.62742 8.83506e-016 -6.62742
vt -1.70711 -1.70711
f 10/18/6 11/22/6 7/13/6

usemtl BackColor
vt 198.5 -372.804
vn 0.357241 -0.892881 -0.274121
vt -48.1641 326.654
vt 280.721 326.654
f 7/23/7 11/24/7 10/25/7

usemtl Stone_Coursed_Rough
f 11/22/6 6/11/6 7/13/6

vn -0.274121 0.892881 0.357241
v -6.61431e-014 6.01301e-016 -11.7128
vt -1.5 -1.86603
f 11/22/8 12/26/8 6/11/8

usemtl BackColor
vt -34.0571 -372.804
vn 0.274121 -0.892881 -0.357241
vt -280.721 326.654
vt 48.1641 326.654
f 6/27/9 12/28/9 11/29/9

usemtl Stone_Coursed_Rough
f 12/26/8 5/9/8 6/11/8

vn -0.17232 0.892881 0.416016
v -7.71779 4.56332e-015 -14.9096
vt -1.25882 -1.96593
f 12/26/10 13/30/10 5/9/10

usemtl BackColor
vt -258.69 -319.061
vn 0.17232 -0.892881 -0.416016
vt -505.353 380.396
vt -176.468 380.396
f 5/31/11 13/32/11 12/33/11

usemtl Stone_Coursed_Rough
f 13/30/10 4/4/10 5/9/10

vn -0.058775 0.892881 0.44644
v -16 0 -16
vt -1 -2
f 13/30/12 14/34/12 4/4/12

usemtl BackColor
vt -460.09 -215.238
vn 0.058775 -0.892881 -0.44644
vt -706.753 484.219
vt -377.869 484.219
f 4/35/13 14/36/13 13/37/13

usemtl Stone_Coursed_Rough
f 4/4/12 14/34/12 2/2/12

usemtl BackColor
vt -624.532 -215.238
f 2/38/13 14/36/13 4/35/13

usemtl Stone_Coursed_Rough
vn 1.75181e-017 1 -3.04717e-017
v 16 0 -16
vt -2 -2
f 13/30/14 15/39/14 14/34/14

f 15/39/14 13/30/14 12/26/14

usemtl BackColor
vt -629.921 629.921
vn -1.75181e-017 -1 3.04717e-017
vt 629.921 629.921
vt -303.85 586.993
f 14/40/15 15/41/15 13/42/15

vt -2.60406e-012 461.134
f 12/43/15 13/42/15 15/41/15

usemtl Stone_Coursed_Rough
f 15/39/14 12/26/14 11/22/14

usemtl BackColor
vt 260.922 260.922
f 11/44/15 12/43/15 15/41/15

usemtl Stone_Coursed_Rough
f 15/39/14 11/22/14 10/18/14

usemtl BackColor
vt 461.134 -2.01971e-013
f 10/45/15 11/44/15 15/41/15

usemtl Stone_Coursed_Rough
f 15/39/14 10/18/14 9/17/14

usemtl BackColor
vt 586.993 -303.85
f 9/46/15 10/45/15 15/41/15

usemtl Stone_Coursed_Rough
v 16 1.72913e-015 16
vt -2 -1
f 15/39/14 9/17/14 16/47/14

usemtl BackColor
vt 629.921 -629.921
f 16/48/15 9/46/15 15/41/15

usemtl Stone_Coursed_Rough
f 16/47/3 9/17/3 1/1/3

usemtl BackColor
vt 624.532 -215.238
vn 0.44644 -0.892881 -0.058775
vt 377.869 484.219
vt 706.753 484.219
f 1/49/16 9/50/16 16/51/16

vt 460.09 -215.238
f 1/49/16 8/52/16 9/50/16

vt -423.132 -319.061
f 5/31/11 4/53/11 13/32/11

vt -198.5 -372.804
f 6/27/9 5/54/9 12/28/9

vt 34.0571 -372.804
f 7/23/7 6/55/7 11/24/7

vt 258.69 -319.061
f 8/19/5 7/56/5 10/20/5

g Mesh2 Model

v 0 0 -0
v -16 0 -0
l 17 18

g Mesh3 Model

l 14 2

l 15 14

l 16 15

l 1 16

l 3 1

l 2 3

l 2 4

l 4 5

l 4 13

l 14 13

l 13 12

l 12 11

l 12 5

l 5 6

l 6 7

l 11 6

l 11 10

l 10 9

l 10 7

l 7 8

l 8 1

l 8 9

l 9 16

