# Alias OBJ Model File
# Exported from SketchUp, (c) 2000-2012 Trimble Navigation Limited
# File units = meters

mtllib dot_m.mtl

g Mesh1 Model

usemtl Stone_Coursed_Rough
v -16 0 -16
vt -6.10623e-016 -1
vn 0 1 -0
v 7.71779 0 -14.9096
vt -0.741181 -0.965926
vn 0.0789971 0.952281 0.294821
v 16 0 -16
vt -1 -1
vn 0.0302076 0.972852 0.229449
f 1/1/1 2/2/2 3/3/3

v 0 0 -11.7128
vt -0.5 -0.866025
vn 0.152611 0.952281 0.264329
f 2/2/2 1/1/1 4/4/4

usemtl BackColor
vt 629.921 629.921
vn -0.0302076 -0.972852 -0.229449
vt 303.85 586.993
vn -0.0789971 -0.952281 -0.294821
vt -629.921 629.921
vn -0 -1 0
f 3/5/5 2/6/6 1/7/7

usemtl Stone_Coursed_Rough
v 11.8589 -8 0.545187
vt -0.87059 -0.482963
f 5/8/2 3/3/3 2/2/2

v 16 -8 3.04842e-015
vt -1 -0.5
f 3/3/3 5/8/2 6/9/3

usemtl BackColor
vt 377.869 484.219
vt 706.753 484.219
vt 460.09 -215.238
f 2/10/6 3/11/5 5/12/6

vt 624.532 -215.238
f 6/13/5 5/12/6 3/11/5

usemtl Stone_Coursed_Rough
v 16 -8 16
vt -1 7.21645e-016
vn 2.72277e-016 1 -2.80158e-017
f 5/8/2 7/14/8 6/9/3

v 8 -8 2.14359
vt -0.75 -0.433013
f 8/15/4 7/14/8 5/8/2

v 4.68629 -8 4.68629
vt -0.646447 -0.353553
vn 0.215824 0.952281 0.215824
f 9/16/9 7/14/8 8/15/4

v 2.14359 -8 8
vt -0.566987 -0.25
vn 0.264329 0.952281 0.152611
f 10/17/10 7/14/8 9/16/9

v 0.545187 -8 11.8589
vt -0.517037 -0.12941
vn 0.294821 0.952281 0.0789971
f 11/18/11 7/14/8 10/17/10

v -1.69055e-015 -8 16
vt -0.5 1.27676e-015
vn 0.229449 0.972852 0.0302076
f 7/14/8 11/18/11 12/19/12

usemtl BackColor
vt 1.91995e-014 -629.921
vn -0.229449 -0.972852 -0.0302076
vt 21.464 -466.886
vn -0.294821 -0.952281 -0.0789971
vt 629.921 -629.921
vn -2.72277e-016 -1 2.80158e-017
f 12/20/13 11/21/14 7/22/15

usemtl Stone_Coursed_Rough
v -14.9096 0 7.71779
vt -0.0340742 -0.258819
f 13/23/11 12/19/12 11/18/11

v -16 0 16
vt 0 0
f 12/19/12 13/23/11 14/24/12

usemtl BackColor
vt -706.753 484.219
vt -377.869 484.219
vt -624.532 -215.238
f 14/25/13 13/26/14 12/27/13

usemtl Stone_Coursed_Rough
f 13/23/11 1/1/1 14/24/12

v -11.7128 0 5.77529e-015
vt -0.133975 -0.5
f 15/28/10 1/1/1 13/23/11

v -6.62742 0 -6.62742
vt -0.292893 -0.707107
f 16/29/9 1/1/1 15/28/10

f 4/4/4 1/1/1 16/29/9

usemtl BackColor
vt 0 461.134
vn -0.152611 -0.952281 -0.264329
f 4/30/16 1/7/7 2/6/6

vt -260.922 260.922
vn -0.215824 -0.952281 -0.215824
f 16/31/17 1/7/7 4/30/16

vt -461.134 -2.27374e-013
vn -0.264329 -0.952281 -0.152611
f 15/32/18 1/7/7 16/31/17

vt -586.993 -303.85
f 13/33/14 1/7/7 15/32/18

vt -629.921 -629.921
f 14/34/13 1/7/7 13/33/14

usemtl Stone_Coursed_Rough
f 11/18/11 15/28/10 13/23/11

f 15/28/10 11/18/11 10/17/10

usemtl BackColor
vt -505.353 380.396
vt -176.468 380.396
vt -423.132 -319.061
f 13/35/14 15/36/18 11/37/14

vt -258.69 -319.061
f 10/38/18 11/37/14 15/36/18

vt 84.3934 -314.961
f 10/39/18 7/22/15 11/21/14

vt 184.5 -184.5
f 9/40/17 7/22/15 10/39/18

vt 314.961 -84.3934
f 8/41/16 7/22/15 9/40/17

vt 466.886 -21.464
f 5/42/6 7/22/15 8/41/16

vt 629.921 -1.11193e-013
f 6/43/5 7/22/15 5/42/6

usemtl Stone_Coursed_Rough
f 2/2/2 8/15/4 5/8/2

f 8/15/4 2/2/2 4/4/4

usemtl BackColor
vt 176.468 380.396
vt 505.353 380.396
vt 258.69 -319.061
f 4/44/16 2/45/6 8/46/16

vt 423.132 -319.061
f 5/47/6 8/46/16 2/45/6

usemtl Stone_Coursed_Rough
f 4/4/4 9/16/9 8/15/4

f 9/16/9 4/4/4 16/29/9

usemtl BackColor
vt -48.1641 326.654
vt 280.721 326.654
vt 34.0571 -372.804
f 16/48/17 4/49/16 9/50/17

vt 198.5 -372.804
f 8/51/16 9/50/17 4/49/16

usemtl Stone_Coursed_Rough
f 16/29/9 10/17/10 9/16/9

f 10/17/10 16/29/9 15/28/10

usemtl BackColor
vt -280.721 326.654
vt 48.1641 326.654
vt -198.5 -372.804
f 15/52/18 16/53/17 10/54/18

vt -34.0571 -372.804
f 9/55/17 10/54/18 16/53/17

vt -460.09 -215.238
f 11/56/14 12/27/13 13/26/14

g Mesh2 Model

l 3 1

l 3 6

l 6 7

l 7 12

l 12 14

l 1 14

