# Alias OBJ Model File
# Exported from SketchUp, (c) 2000-2012 Trimble Navigation Limited
# File units = meters

mtllib dot_j.mtl

g Mesh1 Model

usemtl Stone_Coursed_Rough
v -16 0 16
vt -5.55112e-017 -2.77556e-016
vn 0.447214 0.894427 -1.72207e-016
v -1.01068e-014 -8 -16
vt -0.5 -1
vn 0.229753 0.973249 -1.0006e-016
v -16 0 -16
vt 2.22045e-016 -1
f 1/1/1 2/2/2 3/3/1

v 0 -8 16
vt -0.5 -2.77556e-016
f 2/2/2 1/1/1 4/4/2

usemtl BackColor
vt 629.921 563.419
vn -0.447214 -0.894427 1.72207e-016
vt 629.921 -140.855
vn -0.229753 -0.973249 1.0006e-016
vt -629.921 563.419
f 3/5/3 2/6/4 1/7/3

vt -629.921 -140.855
f 4/8/4 1/7/3 2/6/4

usemtl Stone_Coursed_Rough
v 16 -8 -16
vt -1 -1
vn 3.00796e-017 1 -2.25597e-017
f 4/4/2 5/9/5 2/2/2

v 16 -8 -2.88765e-015
vt -1 -0.5
f 5/9/5 4/4/2 6/10/5

usemtl BackColor
vt -3.8843e-013 629.921
vt 629.921 629.921
vn -3.00796e-017 -1 2.25597e-017
vt 9.4739e-015 -629.921
f 2/11/4 5/12/6 4/13/4

vt 629.921 1.20792e-013
f 6/14/6 4/13/4 5/12/6

usemtl Stone_Coursed_Rough
v 16 -8 16
vt -1 -2.22045e-016
f 7/15/5 6/10/5 4/4/2

usemtl BackColor
vt 629.921 -629.921
f 4/13/4 6/14/6 7/16/6

g Mesh2 Model

l 3 1

l 2 3

l 2 5

l 5 6

l 6 7

l 4 7

l 1 4

