# Alias OBJ Model File
# Exported from SketchUp, (c) 2000-2012 Trimble Navigation Limited
# File units = meters

mtllib dot_G.mtl

g Mesh1 Model

usemtl dot_G
v -16 0 16
vt 0 0
vn 0 1 -0
v -14.9096 0 -7.71779
vt -0.0340742 -0.741181
vn 0.294821 0.952281 -0.0789971
v -16 0 -16
vt -7.21645e-016 -1
vn 0.229449 0.972852 -0.0302076
f 1/1/1 2/2/2 3/3/3

v -11.7128 0 1.44382e-014
vt -0.133975 -0.5
vn 0.264329 0.952281 -0.152611
f 2/2/2 1/1/1 4/4/4

usemtl BackColor
vt -629.921 629.921
vn -0.229449 -0.972852 0.0302076
vt -586.993 303.85
vn -0.294821 -0.952281 0.0789971
vt -629.921 -629.921
vn -0 -1 0
f 3/5/5 2/6/6 1/7/7

usemtl dot_G
v -6.71882e-015 -8 -16
vt -0.5 -1
f 2/2/2 5/8/3 3/3/3

v 0.545187 -8 -11.8589
vt -0.517037 -0.87059
f 5/8/3 2/2/2 6/9/2

usemtl BackColor
vt 706.753 484.219
vt 624.532 -215.238
vt 377.869 484.219
f 3/10/5 5/11/5 2/12/6

vt 460.09 -215.238
f 6/13/6 2/12/6 5/11/5

usemtl dot_G
f 4/4/4 6/9/2 2/2/2

v 2.14359 -8 -8
vt -0.566987 -0.75
f 6/9/2 4/4/4 7/14/4

usemtl BackColor
vt 505.353 380.396
vt 423.132 -319.061
vt 176.468 380.396
vn -0.264329 -0.952281 0.152611
f 2/15/6 6/16/6 4/17/8

vt 258.69 -319.061
f 7/18/8 4/17/8 6/16/6

usemtl dot_G
v -6.62742 0 6.62742
vt -0.292893 -0.292893
vn 0.215824 0.952281 -0.215824
f 8/19/9 7/14/4 4/4/4

v 4.68629 -8 -4.68629
vt -0.646447 -0.646447
f 7/14/4 8/19/9 9/20/9

usemtl BackColor
vt 280.721 326.654
vt 198.5 -372.804
vt -48.1641 326.654
vn -0.215824 -0.952281 0.215824
f 4/21/8 7/22/8 8/23/10

vt 34.0571 -372.804
f 9/24/10 8/23/10 7/22/8

usemtl dot_G
v 1.73259e-014 0 11.7128
vt -0.5 -0.133975
vn 0.152611 0.952281 -0.264329
f 10/25/11 9/20/9 8/19/9

v 8 -8 -2.14359
vt -0.75 -0.566987
f 9/20/9 10/25/11 11/26/11

usemtl BackColor
vt 48.1641 326.654
vt -34.0571 -372.804
vt -280.721 326.654
vn -0.152611 -0.952281 0.264329
f 8/27/10 9/28/10 10/29/12

vt -198.5 -372.804
f 11/30/12 10/29/12 9/28/10

usemtl dot_G
v 7.71779 0 14.9096
vt -0.741181 -0.0340742
vn 0.0789971 0.952281 -0.294821
f 12/31/13 11/26/11 10/25/11

v 11.8589 -8 -0.545187
vt -0.87059 -0.517037
f 11/26/11 12/31/13 13/32/13

usemtl BackColor
vt -176.468 380.396
vt -258.69 -319.061
vt -505.353 380.396
vn -0.0789971 -0.952281 0.294821
f 10/33/12 11/34/12 12/35/14

vt -423.132 -319.061
f 13/36/14 12/35/14 11/34/12

usemtl dot_G
v 16 0 16
vt -1 7.21645e-016
vn 0.0302076 0.972852 -0.229449
f 14/37/15 13/32/13 12/31/13

v 16 -8 1.80075e-014
vt -1 -0.5
f 13/32/13 14/37/15 15/38/15

usemtl BackColor
vt -377.869 484.219
vt -460.09 -215.238
vt -706.753 484.219
vn -0.0302076 -0.972852 0.229449
f 12/39/14 13/40/14 14/41/16

vt -624.532 -215.238
f 15/42/16 14/41/16 13/40/14

usemtl dot_G
v 16 -8 -16
vt -1 -1
vn 8.22082e-016 1 5.1538e-016
f 16/43/17 13/32/13 15/38/15

f 16/43/17 11/26/11 13/32/13

f 16/43/17 9/20/9 11/26/11

f 16/43/17 7/14/4 9/20/9

f 16/43/17 6/9/2 7/14/4

f 6/9/2 16/43/17 5/8/3

usemtl BackColor
vt -5.59706e-015 629.921
vt 629.921 629.921
vn -8.22082e-016 -1 -5.1538e-016
vt 21.464 466.886
f 5/44/5 16/45/18 6/46/6

vt 84.3934 314.961
f 7/47/8 6/46/6 16/45/18

vt 184.5 184.5
f 9/48/10 7/47/8 16/45/18

vt 314.961 84.3934
f 11/49/12 9/48/10 16/45/18

vt 466.886 21.464
f 13/50/14 11/49/12 16/45/18

vt 629.921 -8.7128e-013
f 15/51/16 13/50/14 16/45/18

usemtl dot_G
f 12/31/13 1/1/1 14/37/15

f 10/25/11 1/1/1 12/31/13

f 8/19/9 1/1/1 10/25/11

f 4/4/4 1/1/1 8/19/9

usemtl BackColor
vt -461.134 -5.68434e-013
f 4/52/8 1/7/7 2/6/6

vt -260.922 -260.922
f 8/53/10 1/7/7 4/52/8

vt 6.82121e-013 -461.134
f 10/54/12 1/7/7 8/53/10

vt 303.85 -586.993
f 12/55/14 1/7/7 10/54/12

vt 629.921 -629.921
f 14/56/16 1/7/7 12/55/14

g Mesh2 Model

l 14 1

l 14 15

l 15 16

l 16 5

l 5 3

l 1 3

