# Alias OBJ Model File
# Exported from SketchUp, (c) 2000-2012 Trimble Navigation Limited
# File units = meters

mtllib dot_E.mtl

g Mesh1 Model

usemtl dot_E
v 0 0 16
vt -0.5 3.88578e-016
vn 0 1 -0
v -7.71779 0 14.9096
vt -0.258819 -0.0340742
vn -0.0789971 0.952281 -0.294821
v -16 0 16
vt 0 0
vn -0.0302076 0.972852 -0.229449
f 1/1/1 2/2/2 3/3/3

v 1.44382e-014 0 11.7128
vt -0.5 -0.133975
vn -0.152611 0.952281 -0.264329
f 2/2/2 1/1/1 4/4/4

usemtl BackColor
vt -629.921 -629.921
vn 0.0302076 -0.972852 0.229449
vt -303.85 -586.993
vn 0.0789971 -0.952281 0.294821
vt 0 -629.921
vn -0 -1 0
f 3/5/5 2/6/6 1/7/7

usemtl dot_E
v -16 -8 1.79669e-015
vt -6.10623e-016 -0.5
f 2/2/2 5/8/3 3/3/3

v -11.8589 -8 -0.545187
vt -0.12941 -0.517037
f 5/8/3 2/2/2 6/9/2

usemtl BackColor
vt 706.753 484.219
vt 624.532 -215.238
vt 377.869 484.219
f 3/10/5 5/11/5 2/12/6

vt 460.09 -215.238
f 6/13/6 2/12/6 5/11/5

usemtl dot_E
v -8 -8 -2.14359
vt -0.25 -0.566987
f 2/2/2 7/14/4 6/9/2

f 7/14/4 2/2/2 4/4/4

usemtl BackColor
vt 423.132 -319.061
vt 258.69 -319.061
vn 0.152611 -0.952281 0.264329
vt 505.353 380.396
f 6/15/6 7/16/8 2/17/6

usemtl dot_E
v 8.51392e-016 -8 -16
vt -0.5 -1
vn -0.229449 0.972852 -0.0302076
f 8/18/9 6/9/2 7/14/4

f 8/18/9 5/8/3 6/9/2

v -16 -8 -16
vt -7.21645e-016 -1
vn 9.32805e-016 1 -7.84637e-016
f 5/8/3 8/18/9 9/19/10

usemtl BackColor
vt -629.921 629.921
vn -9.32805e-016 -1 7.84637e-016
vt 3.27316e-013 629.921
vn 0.229449 -0.972852 0.0302076
vt -629.921 1.76394e-013
f 9/20/11 8/21/12 5/22/5

vt -466.886 21.464
f 6/23/6 5/22/5 8/21/12

vt -314.961 84.3934
f 7/24/8 6/23/6 8/21/12

usemtl dot_E
v -4.68629 -8 -4.68629
vt -0.353553 -0.646447
vn -0.215824 0.952281 -0.215824
f 8/18/9 7/14/4 10/25/13

usemtl BackColor
vt -184.5 184.5
vn 0.215824 -0.952281 0.215824
f 10/26/14 7/24/8 8/21/12

usemtl dot_E
f 4/4/4 10/25/13 7/14/4

v 6.62742 0 6.62742
vt -0.707107 -0.292893
f 10/25/13 4/4/4 11/27/13

usemtl BackColor
vt 198.5 -372.804
vt 34.0571 -372.804
vt 280.721 326.654
f 7/28/8 10/29/14 4/30/8

vt -48.1641 326.654
f 11/31/14 4/30/8 10/29/14

usemtl dot_E
v 16 0 16
vt -1 7.21645e-016
f 4/4/4 12/32/1 11/27/13

f 4/4/4 1/1/1 12/32/1

usemtl BackColor
vt 5.68434e-013 -461.134
f 4/33/8 1/7/7 2/6/6

vt 629.921 -629.921
f 12/34/7 1/7/7 4/33/8

vt 260.922 -260.922
f 11/35/14 12/34/7 4/33/8

usemtl dot_E
v 11.7128 0 -2.31012e-014
vt -0.866025 -0.5
vn -0.264329 0.952281 -0.152611
f 11/27/13 12/32/1 13/36/15

usemtl BackColor
vt 461.134 9.09495e-013
vn 0.264329 -0.952281 0.152611
f 13/37/16 12/34/7 11/35/14

usemtl dot_E
v 14.9096 0 -7.71779
vt -0.965926 -0.741181
vn -0.294821 0.952281 -0.0789971
f 13/36/15 12/32/1 14/38/17

usemtl BackColor
vt 586.993 303.85
vn 0.294821 -0.952281 0.0789971
f 14/39/18 12/34/7 13/37/16

usemtl dot_E
v 16 0 -16
vt -1 -1
f 14/38/17 12/32/1 15/40/9

usemtl BackColor
vt 629.921 629.921
f 15/41/12 12/34/7 14/39/18

usemtl dot_E
f 8/18/9 14/38/17 15/40/9

v -0.545187 -8 -11.8589
vt -0.482963 -0.87059
f 14/38/17 8/18/9 16/42/17

usemtl BackColor
vt -460.09 -215.238
vt -624.532 -215.238
vt -377.869 484.219
f 16/43/18 8/44/12 14/45/18

usemtl dot_E
v -2.14359 -8 -8
vt -0.433013 -0.75
f 8/18/9 17/46/15 16/42/17

f 8/18/9 10/25/13 17/46/15

usemtl BackColor
vt -84.3934 314.961
f 17/47/16 10/26/14 8/21/12

usemtl dot_E
f 11/27/13 17/46/15 10/25/13

f 17/46/15 11/27/13 13/36/15

usemtl BackColor
vt -34.0571 -372.804
vt -198.5 -372.804
vt 48.1641 326.654
f 10/48/14 17/49/16 11/50/14

vt -280.721 326.654
f 13/51/16 11/50/14 17/49/16

usemtl dot_E
f 13/36/15 16/42/17 17/46/15

f 16/42/17 13/36/15 14/38/17

usemtl BackColor
vt -258.69 -319.061
vt -423.132 -319.061
vt -176.468 380.396
f 17/52/16 16/53/18 13/54/16

vt -21.464 466.886
f 16/55/18 17/47/16 8/21/12

vt -505.353 380.396
f 14/56/18 13/54/16 16/53/18

vt -706.753 484.219
f 15/57/12 14/45/18 8/44/12

vt 176.468 380.396
f 4/58/8 2/17/6 7/16/8

g Mesh2 Model

l 15 12

l 8 15

l 9 8

l 5 9

l 3 5

l 1 3

l 12 1

