# Alias OBJ Model File
# Exported from SketchUp, (c) 2000-2012 Trimble Navigation Limited
# File units = meters

mtllib dot_h.mtl

g Mesh1 Model

usemtl FrontColor
v 16 0 -16
vt 629.921 563.419
vn 0.447214 -0.894427 -0
v 0 -8 -0
vt 0 -140.855
vn 0.229753 -0.973249 -0
v 0 -8 -16
vt 629.921 -140.855
f 1/1/1 2/2/2 3/3/2

v 0 -8 16
vt -629.921 -140.855
f 2/2/2 1/1/1 4/4/2

usemtl dot_H
vt 0.5 1
vn -0.229753 0.973249 0
vt 0.5 0.5
vt 0 1
vn -0.447214 0.894427 0
f 3/5/3 2/6/3 1/7/4

usemtl FrontColor
vt 0 -629.921
vt 0 629.921
vt 0 0
f 4/8/2 3/9/2 2/10/2

v -16 -8 16
vt 629.921 -629.921
vn 0 -1 -0
f 5/11/5 3/9/2 4/8/2

v -16 -8 -0
vt 629.921 0
f 6/12/5 3/9/2 5/11/5

v -16 -8 -16
vt 629.921 629.921
f 3/9/2 6/12/5 7/13/5

usemtl dot_H
vt 1 1
vn -0 1 0
vt 1 0.5
f 7/14/6 6/15/6 3/5/3

vt 1 0
f 5/16/6 3/5/3 6/15/6

vt 0.5 -1.11022e-016
f 4/17/3 3/5/3 5/16/6

f 2/6/3 3/5/3 4/17/3

f 4/17/3 1/7/4 2/6/3

usemtl FrontColor
v 16 0 16
vt -629.921 563.419
f 4/4/2 1/1/1 8/18/1

usemtl dot_H
f 8/10/4 1/7/4 4/17/3

g Mesh2 Model

l 8 1

l 4 8

l 4 5

l 6 5

l 7 6

l 3 7

l 1 3

